<mxfile host="app.diagrams.net" modified="2023-03-25T01:09:30.352Z" agent="Mozilla/5.0 (Windows NT 10.0; Win64; x64) AppleWebKit/537.36 (KHTML, like Gecko) Chrome/111.0.0.0 Safari/537.36" etag="JByNtfgwBj2-8QkvU9bT" version="21.1.1" type="google">
  <diagram name="Halaman-1" id="ydEH31KwaI3Zl1FPurJ2">
    <mxGraphModel grid="1" page="1" gridSize="10" guides="1" tooltips="1" connect="1" arrows="1" fold="1" pageScale="1" pageWidth="827" pageHeight="1169" math="0" shadow="0">
      <root>
        <mxCell id="0" />
        <mxCell id="1" parent="0" />
        <mxCell id="EOpiAQe5cA4bUG-00qCK-18" value="" style="rounded=1;whiteSpace=wrap;html=1;" vertex="1" parent="1">
          <mxGeometry x="120" y="80" width="600" height="1000" as="geometry" />
        </mxCell>
        <mxCell id="EOpiAQe5cA4bUG-00qCK-1" value="admin" style="shape=umlActor;verticalLabelPosition=bottom;verticalAlign=top;html=1;outlineConnect=0;" vertex="1" parent="1">
          <mxGeometry x="760" y="490" width="50" height="90" as="geometry" />
        </mxCell>
        <mxCell id="EOpiAQe5cA4bUG-00qCK-2" value="pemesan" style="shape=umlActor;verticalLabelPosition=bottom;verticalAlign=top;html=1;outlineConnect=0;" vertex="1" parent="1">
          <mxGeometry x="20" y="492.5" width="60" height="95" as="geometry" />
        </mxCell>
        <mxCell id="EOpiAQe5cA4bUG-00qCK-4" value="login" style="ellipse;whiteSpace=wrap;html=1;" vertex="1" parent="1">
          <mxGeometry x="190" y="160" width="90" height="60" as="geometry" />
        </mxCell>
        <mxCell id="EOpiAQe5cA4bUG-00qCK-6" value="booking ticket" style="ellipse;whiteSpace=wrap;html=1;" vertex="1" parent="1">
          <mxGeometry x="191" y="525" width="90" height="60" as="geometry" />
        </mxCell>
        <mxCell id="EOpiAQe5cA4bUG-00qCK-7" value="pembayaran" style="ellipse;whiteSpace=wrap;html=1;" vertex="1" parent="1">
          <mxGeometry x="191" y="850" width="90" height="60" as="geometry" />
        </mxCell>
        <mxCell id="EOpiAQe5cA4bUG-00qCK-8" value="verivikasi password" style="ellipse;whiteSpace=wrap;html=1;" vertex="1" parent="1">
          <mxGeometry x="369" y="100" width="90" height="60" as="geometry" />
        </mxCell>
        <mxCell id="EOpiAQe5cA4bUG-00qCK-9" value="display eror" style="ellipse;whiteSpace=wrap;html=1;" vertex="1" parent="1">
          <mxGeometry x="369" y="220" width="90" height="60" as="geometry" />
        </mxCell>
        <mxCell id="EOpiAQe5cA4bUG-00qCK-10" value="pilih statiun asal" style="ellipse;whiteSpace=wrap;html=1;" vertex="1" parent="1">
          <mxGeometry x="368" y="390" width="90" height="60" as="geometry" />
        </mxCell>
        <mxCell id="EOpiAQe5cA4bUG-00qCK-11" value="pilih statiun tujuan" style="ellipse;whiteSpace=wrap;html=1;" vertex="1" parent="1">
          <mxGeometry x="369" y="450" width="90" height="60" as="geometry" />
        </mxCell>
        <mxCell id="EOpiAQe5cA4bUG-00qCK-12" value="pilih tanggal berangkat" style="ellipse;whiteSpace=wrap;html=1;" vertex="1" parent="1">
          <mxGeometry x="369" y="510" width="90" height="60" as="geometry" />
        </mxCell>
        <mxCell id="EOpiAQe5cA4bUG-00qCK-13" value="pilih jumlah penumpng" style="ellipse;whiteSpace=wrap;html=1;" vertex="1" parent="1">
          <mxGeometry x="368" y="570" width="90" height="60" as="geometry" />
        </mxCell>
        <mxCell id="EOpiAQe5cA4bUG-00qCK-15" value="pilih kursi" style="ellipse;whiteSpace=wrap;html=1;" vertex="1" parent="1">
          <mxGeometry x="368" y="630" width="90" height="60" as="geometry" />
        </mxCell>
        <mxCell id="EOpiAQe5cA4bUG-00qCK-16" value="pilih metode pembayaran" style="ellipse;whiteSpace=wrap;html=1;" vertex="1" parent="1">
          <mxGeometry x="369" y="810" width="90" height="60" as="geometry" />
        </mxCell>
        <mxCell id="EOpiAQe5cA4bUG-00qCK-17" value="konfirmasi pembayaran" style="ellipse;whiteSpace=wrap;html=1;" vertex="1" parent="1">
          <mxGeometry x="370" y="900" width="90" height="60" as="geometry" />
        </mxCell>
        <mxCell id="EOpiAQe5cA4bUG-00qCK-21" value="" style="endArrow=classic;html=1;rounded=0;entryX=0;entryY=0.5;entryDx=0;entryDy=0;exitX=1;exitY=0.3333333333333333;exitDx=0;exitDy=0;exitPerimeter=0;" edge="1" parent="1" source="EOpiAQe5cA4bUG-00qCK-2" target="EOpiAQe5cA4bUG-00qCK-4">
          <mxGeometry width="50" height="50" relative="1" as="geometry">
            <mxPoint x="100" y="530" as="sourcePoint" />
            <mxPoint x="150" y="480" as="targetPoint" />
          </mxGeometry>
        </mxCell>
        <mxCell id="EOpiAQe5cA4bUG-00qCK-22" value="" style="endArrow=classic;html=1;rounded=0;exitX=1;exitY=0.3333333333333333;exitDx=0;exitDy=0;exitPerimeter=0;" edge="1" parent="1" source="EOpiAQe5cA4bUG-00qCK-2" target="EOpiAQe5cA4bUG-00qCK-6">
          <mxGeometry width="50" height="50" relative="1" as="geometry">
            <mxPoint x="550" y="470" as="sourcePoint" />
            <mxPoint x="600" y="420" as="targetPoint" />
          </mxGeometry>
        </mxCell>
        <mxCell id="EOpiAQe5cA4bUG-00qCK-23" value="" style="endArrow=classic;html=1;rounded=0;exitX=1;exitY=0.3333333333333333;exitDx=0;exitDy=0;exitPerimeter=0;entryX=0;entryY=0.5;entryDx=0;entryDy=0;" edge="1" parent="1" source="EOpiAQe5cA4bUG-00qCK-2" target="EOpiAQe5cA4bUG-00qCK-7">
          <mxGeometry width="50" height="50" relative="1" as="geometry">
            <mxPoint x="460" y="580" as="sourcePoint" />
            <mxPoint x="510" y="530" as="targetPoint" />
          </mxGeometry>
        </mxCell>
        <mxCell id="EOpiAQe5cA4bUG-00qCK-24" value="" style="endArrow=classic;html=1;rounded=0;exitX=1;exitY=0.5;exitDx=0;exitDy=0;entryX=0;entryY=0.5;entryDx=0;entryDy=0;dashed=1;" edge="1" parent="1" source="EOpiAQe5cA4bUG-00qCK-4" target="EOpiAQe5cA4bUG-00qCK-8">
          <mxGeometry width="50" height="50" relative="1" as="geometry">
            <mxPoint x="270" y="350" as="sourcePoint" />
            <mxPoint x="320" y="300" as="targetPoint" />
          </mxGeometry>
        </mxCell>
        <mxCell id="EOpiAQe5cA4bUG-00qCK-25" value="" style="endArrow=classic;html=1;rounded=0;exitX=0;exitY=0.5;exitDx=0;exitDy=0;entryX=1;entryY=0.5;entryDx=0;entryDy=0;dashed=1;" edge="1" parent="1" source="EOpiAQe5cA4bUG-00qCK-9" target="EOpiAQe5cA4bUG-00qCK-4">
          <mxGeometry width="50" height="50" relative="1" as="geometry">
            <mxPoint x="290" y="200" as="sourcePoint" />
            <mxPoint x="379" y="140" as="targetPoint" />
          </mxGeometry>
        </mxCell>
        <mxCell id="EOpiAQe5cA4bUG-00qCK-26" value="" style="endArrow=classic;html=1;rounded=0;exitX=1;exitY=0.5;exitDx=0;exitDy=0;entryX=0;entryY=0.5;entryDx=0;entryDy=0;dashed=1;" edge="1" parent="1" source="EOpiAQe5cA4bUG-00qCK-6" target="EOpiAQe5cA4bUG-00qCK-10">
          <mxGeometry width="50" height="50" relative="1" as="geometry">
            <mxPoint x="260" y="510" as="sourcePoint" />
            <mxPoint x="349" y="450" as="targetPoint" />
          </mxGeometry>
        </mxCell>
        <mxCell id="EOpiAQe5cA4bUG-00qCK-27" value="" style="endArrow=classic;html=1;rounded=0;exitX=1;exitY=0.5;exitDx=0;exitDy=0;entryX=0;entryY=0.5;entryDx=0;entryDy=0;dashed=1;" edge="1" parent="1" source="EOpiAQe5cA4bUG-00qCK-6" target="EOpiAQe5cA4bUG-00qCK-11">
          <mxGeometry width="50" height="50" relative="1" as="geometry">
            <mxPoint x="246" y="535" as="sourcePoint" />
            <mxPoint x="378" y="430" as="targetPoint" />
          </mxGeometry>
        </mxCell>
        <mxCell id="EOpiAQe5cA4bUG-00qCK-28" value="" style="endArrow=classic;html=1;rounded=0;exitX=1;exitY=0.5;exitDx=0;exitDy=0;entryX=0;entryY=0.5;entryDx=0;entryDy=0;dashed=1;" edge="1" parent="1" source="EOpiAQe5cA4bUG-00qCK-6" target="EOpiAQe5cA4bUG-00qCK-12">
          <mxGeometry width="50" height="50" relative="1" as="geometry">
            <mxPoint x="291" y="565" as="sourcePoint" />
            <mxPoint x="379" y="490" as="targetPoint" />
          </mxGeometry>
        </mxCell>
        <mxCell id="EOpiAQe5cA4bUG-00qCK-29" value="" style="endArrow=classic;html=1;rounded=0;exitX=1;exitY=0.5;exitDx=0;exitDy=0;entryX=0;entryY=0.5;entryDx=0;entryDy=0;dashed=1;" edge="1" parent="1" source="EOpiAQe5cA4bUG-00qCK-6" target="EOpiAQe5cA4bUG-00qCK-13">
          <mxGeometry width="50" height="50" relative="1" as="geometry">
            <mxPoint x="291" y="565" as="sourcePoint" />
            <mxPoint x="379" y="550" as="targetPoint" />
          </mxGeometry>
        </mxCell>
        <mxCell id="EOpiAQe5cA4bUG-00qCK-30" value="" style="endArrow=classic;html=1;rounded=0;exitX=1;exitY=0.5;exitDx=0;exitDy=0;entryX=0;entryY=0.5;entryDx=0;entryDy=0;dashed=1;" edge="1" parent="1" source="EOpiAQe5cA4bUG-00qCK-6" target="EOpiAQe5cA4bUG-00qCK-15">
          <mxGeometry width="50" height="50" relative="1" as="geometry">
            <mxPoint x="291" y="565" as="sourcePoint" />
            <mxPoint x="378" y="610" as="targetPoint" />
          </mxGeometry>
        </mxCell>
        <mxCell id="EOpiAQe5cA4bUG-00qCK-31" value="include" style="text;html=1;align=center;verticalAlign=middle;resizable=0;points=[];autosize=1;strokeColor=none;fillColor=none;" vertex="1" parent="1">
          <mxGeometry x="300" y="140" width="60" height="30" as="geometry" />
        </mxCell>
        <mxCell id="EOpiAQe5cA4bUG-00qCK-32" value="extend" style="text;html=1;align=center;verticalAlign=middle;resizable=0;points=[];autosize=1;strokeColor=none;fillColor=none;" vertex="1" parent="1">
          <mxGeometry x="300" y="210" width="60" height="30" as="geometry" />
        </mxCell>
        <mxCell id="EOpiAQe5cA4bUG-00qCK-33" value="include" style="text;html=1;align=center;verticalAlign=middle;resizable=0;points=[];autosize=1;strokeColor=none;fillColor=none;" vertex="1" parent="1">
          <mxGeometry x="290" y="465" width="60" height="30" as="geometry" />
        </mxCell>
        <mxCell id="EOpiAQe5cA4bUG-00qCK-35" value="include" style="text;html=1;align=center;verticalAlign=middle;resizable=0;points=[];autosize=1;strokeColor=none;fillColor=none;" vertex="1" parent="1">
          <mxGeometry x="308" y="495" width="60" height="30" as="geometry" />
        </mxCell>
        <mxCell id="EOpiAQe5cA4bUG-00qCK-36" value="include" style="text;html=1;align=center;verticalAlign=middle;resizable=0;points=[];autosize=1;strokeColor=none;fillColor=none;" vertex="1" parent="1">
          <mxGeometry x="308" y="540" width="60" height="30" as="geometry" />
        </mxCell>
        <mxCell id="EOpiAQe5cA4bUG-00qCK-37" value="include" style="text;html=1;align=center;verticalAlign=middle;resizable=0;points=[];autosize=1;strokeColor=none;fillColor=none;" vertex="1" parent="1">
          <mxGeometry x="310" y="570" width="60" height="30" as="geometry" />
        </mxCell>
        <mxCell id="EOpiAQe5cA4bUG-00qCK-38" value="include" style="text;html=1;align=center;verticalAlign=middle;resizable=0;points=[];autosize=1;strokeColor=none;fillColor=none;" vertex="1" parent="1">
          <mxGeometry x="300" y="590" width="60" height="30" as="geometry" />
        </mxCell>
        <mxCell id="EOpiAQe5cA4bUG-00qCK-39" value="" style="endArrow=classic;html=1;rounded=0;entryX=0;entryY=0.5;entryDx=0;entryDy=0;dashed=1;exitX=1;exitY=0.5;exitDx=0;exitDy=0;" edge="1" parent="1" source="EOpiAQe5cA4bUG-00qCK-7" target="EOpiAQe5cA4bUG-00qCK-16">
          <mxGeometry width="50" height="50" relative="1" as="geometry">
            <mxPoint x="291" y="565" as="sourcePoint" />
            <mxPoint x="378" y="670" as="targetPoint" />
          </mxGeometry>
        </mxCell>
        <mxCell id="EOpiAQe5cA4bUG-00qCK-40" value="" style="endArrow=classic;html=1;rounded=0;entryX=0;entryY=0.5;entryDx=0;entryDy=0;dashed=1;" edge="1" parent="1" target="EOpiAQe5cA4bUG-00qCK-17">
          <mxGeometry width="50" height="50" relative="1" as="geometry">
            <mxPoint x="280" y="880" as="sourcePoint" />
            <mxPoint x="379" y="850" as="targetPoint" />
          </mxGeometry>
        </mxCell>
        <mxCell id="EOpiAQe5cA4bUG-00qCK-41" value="include" style="text;html=1;align=center;verticalAlign=middle;resizable=0;points=[];autosize=1;strokeColor=none;fillColor=none;" vertex="1" parent="1">
          <mxGeometry x="290" y="850" width="60" height="30" as="geometry" />
        </mxCell>
        <mxCell id="EOpiAQe5cA4bUG-00qCK-42" value="include" style="text;html=1;align=center;verticalAlign=middle;resizable=0;points=[];autosize=1;strokeColor=none;fillColor=none;" vertex="1" parent="1">
          <mxGeometry x="290" y="890" width="60" height="30" as="geometry" />
        </mxCell>
        <mxCell id="EOpiAQe5cA4bUG-00qCK-45" value="" style="endArrow=classic;html=1;rounded=0;exitX=0;exitY=0.3333333333333333;exitDx=0;exitDy=0;exitPerimeter=0;entryX=1;entryY=0.5;entryDx=0;entryDy=0;" edge="1" parent="1" source="EOpiAQe5cA4bUG-00qCK-1" target="EOpiAQe5cA4bUG-00qCK-10">
          <mxGeometry width="50" height="50" relative="1" as="geometry">
            <mxPoint x="90" y="534" as="sourcePoint" />
            <mxPoint x="203" y="557" as="targetPoint" />
          </mxGeometry>
        </mxCell>
        <mxCell id="EOpiAQe5cA4bUG-00qCK-46" value="" style="endArrow=classic;html=1;rounded=0;exitX=0;exitY=0.3333333333333333;exitDx=0;exitDy=0;exitPerimeter=0;entryX=1;entryY=0.5;entryDx=0;entryDy=0;" edge="1" parent="1" source="EOpiAQe5cA4bUG-00qCK-1" target="EOpiAQe5cA4bUG-00qCK-11">
          <mxGeometry width="50" height="50" relative="1" as="geometry">
            <mxPoint x="760" y="537" as="sourcePoint" />
            <mxPoint x="468" y="430" as="targetPoint" />
          </mxGeometry>
        </mxCell>
        <mxCell id="EOpiAQe5cA4bUG-00qCK-47" value="" style="endArrow=classic;html=1;rounded=0;exitX=0;exitY=0.3333333333333333;exitDx=0;exitDy=0;exitPerimeter=0;" edge="1" parent="1" source="EOpiAQe5cA4bUG-00qCK-1" target="EOpiAQe5cA4bUG-00qCK-12">
          <mxGeometry width="50" height="50" relative="1" as="geometry">
            <mxPoint x="770" y="547" as="sourcePoint" />
            <mxPoint x="469" y="490" as="targetPoint" />
          </mxGeometry>
        </mxCell>
        <mxCell id="EOpiAQe5cA4bUG-00qCK-48" value="" style="endArrow=classic;html=1;rounded=0;exitX=0;exitY=0.3333333333333333;exitDx=0;exitDy=0;exitPerimeter=0;" edge="1" parent="1" source="EOpiAQe5cA4bUG-00qCK-1" target="EOpiAQe5cA4bUG-00qCK-13">
          <mxGeometry width="50" height="50" relative="1" as="geometry">
            <mxPoint x="780" y="557" as="sourcePoint" />
            <mxPoint x="479" y="500" as="targetPoint" />
          </mxGeometry>
        </mxCell>
        <mxCell id="EOpiAQe5cA4bUG-00qCK-49" value="" style="endArrow=classic;html=1;rounded=0;exitX=0;exitY=0.3333333333333333;exitDx=0;exitDy=0;exitPerimeter=0;entryX=1;entryY=0.5;entryDx=0;entryDy=0;" edge="1" parent="1" source="EOpiAQe5cA4bUG-00qCK-1" target="EOpiAQe5cA4bUG-00qCK-15">
          <mxGeometry width="50" height="50" relative="1" as="geometry">
            <mxPoint x="790" y="567" as="sourcePoint" />
            <mxPoint x="489" y="510" as="targetPoint" />
          </mxGeometry>
        </mxCell>
        <mxCell id="EOpiAQe5cA4bUG-00qCK-50" value="" style="endArrow=classic;html=1;rounded=0;exitX=0;exitY=0.3333333333333333;exitDx=0;exitDy=0;exitPerimeter=0;entryX=1;entryY=0.5;entryDx=0;entryDy=0;" edge="1" parent="1" source="EOpiAQe5cA4bUG-00qCK-1" target="EOpiAQe5cA4bUG-00qCK-16">
          <mxGeometry width="50" height="50" relative="1" as="geometry">
            <mxPoint x="800" y="577" as="sourcePoint" />
            <mxPoint x="499" y="520" as="targetPoint" />
          </mxGeometry>
        </mxCell>
        <mxCell id="EOpiAQe5cA4bUG-00qCK-51" value="" style="endArrow=classic;html=1;rounded=0;exitX=0;exitY=0.3333333333333333;exitDx=0;exitDy=0;exitPerimeter=0;entryX=1;entryY=0.5;entryDx=0;entryDy=0;" edge="1" parent="1" source="EOpiAQe5cA4bUG-00qCK-1" target="EOpiAQe5cA4bUG-00qCK-17">
          <mxGeometry width="50" height="50" relative="1" as="geometry">
            <mxPoint x="760" y="537" as="sourcePoint" />
            <mxPoint x="469" y="850" as="targetPoint" />
          </mxGeometry>
        </mxCell>
      </root>
    </mxGraphModel>
  </diagram>
</mxfile>
